<?xml version="1.0" encoding="UTF-8"?>
<svg width="30px" height="30px" version="1.1" viewBox="0 0 1200 1200" xmlns="http://www.w3.org/2000/svg">
 <g>
  <path fill="currentColor" d="m600 318.75c-134.41 0-243.75 109.34-243.75 243.75s109.34 243.75 243.75 243.75 243.75-109.34 243.75-243.75-109.34-243.75-243.75-243.75zm0 450c-113.73 0-206.25-92.523-206.25-206.25s92.523-206.25 206.25-206.25 206.25 92.523 206.25 206.25-92.523 206.25-206.25 206.25z"/>
  <path fill="currentColor" d="m1125 827.77v-567.61c0-29.727-24.18-53.906-53.906-53.906h-942.19c-29.727 0-53.906 24.18-53.906 53.906v567.61c-21.754 7.2031-37.5 27.723-37.5 51.863v40.738c0 30.121 24.508 54.629 54.633 54.629h1015.7c30.125 0 54.633-24.508 54.633-54.633v-40.734c0-24.141-15.746-44.66-37.5-51.863zm-996.09-584.02h942.19c9.043 0 16.406 7.3633 16.406 16.406v564.84h-18.75v-543.75c0-10.355-8.3945-18.75-18.75-18.75h-900c-10.355 0-18.75 8.3945-18.75 18.75v543.75h-18.75v-564.84c0-9.043 7.3633-16.406 16.406-16.406zm564.84 581.25c-7.1016 0-13.598 4.0117-16.77 10.363l-13.566 27.137h-126.82l-13.566-27.137c-3.1758-6.3516-9.6719-10.363-16.773-10.363h-337.5v-525h862.5v525zm431.25 95.367c0 9.4453-7.6836 17.133-17.133 17.133h-1015.7c-9.4453 0-17.133-7.6836-17.133-17.133v-40.734c0-9.4453 7.6836-17.133 17.133-17.133h402.53l13.566 27.137c3.1719 6.3516 9.668 10.363 16.77 10.363h150c7.1016 0 13.598-4.0117 16.77-10.363l13.566-27.137h402.53c9.4453 0 17.133 7.6836 17.133 17.133z"/>
  <path fill="currentColor" d="m656.25 656.25v-131.25c0-10.355-8.3945-18.75-18.75-18.75h-93.75c-10.355 0-18.75 8.3945-18.75 18.75v56.25c0 10.355 8.3945 18.75 18.75 18.75v56.25c-10.355 0-18.75 8.3945-18.75 18.75v56.25c0 10.355 8.3945 18.75 18.75 18.75h112.5c10.355 0 18.75-8.3945 18.75-18.75v-56.25c0-10.355-8.3945-18.75-18.75-18.75zm-18.75 56.25h-75v-18.75c10.355 0 18.75-8.3945 18.75-18.75v-93.75c0-10.355-8.3945-18.75-18.75-18.75v-18.75h56.25v131.25c0 10.355 8.3945 18.75 18.75 18.75z"/>
  <path fill="currentColor" d="m600 487.5c31.016 0 56.25-25.234 56.25-56.25s-25.234-56.25-56.25-56.25-56.25 25.234-56.25 56.25 25.234 56.25 56.25 56.25zm0-75c10.34 0 18.75 8.4102 18.75 18.75s-8.4102 18.75-18.75 18.75-18.75-8.4102-18.75-18.75 8.4102-18.75 18.75-18.75z"/>
  <path fill="currentColor" d="m975 543.75h-75c-10.355 0-18.75 8.3945-18.75 18.75s8.3945 18.75 18.75 18.75h75c10.355 0 18.75-8.3945 18.75-18.75s-8.3945-18.75-18.75-18.75z"/>
  <path fill="currentColor" d="m975 450h-93.75c-10.355 0-18.75 8.3945-18.75 18.75s8.3945 18.75 18.75 18.75h93.75c10.355 0 18.75-8.3945 18.75-18.75s-8.3945-18.75-18.75-18.75z"/>
  <path fill="currentColor" d="m825 393.75h150c10.355 0 18.75-8.3945 18.75-18.75s-8.3945-18.75-18.75-18.75h-150c-10.355 0-18.75 8.3945-18.75 18.75s8.3945 18.75 18.75 18.75z"/>
  <path fill="currentColor" d="m975 637.5h-93.75c-10.355 0-18.75 8.3945-18.75 18.75s8.3945 18.75 18.75 18.75h93.75c10.355 0 18.75-8.3945 18.75-18.75s-8.3945-18.75-18.75-18.75z"/>
  <path fill="currentColor" d="m975 731.25h-150c-10.355 0-18.75 8.3945-18.75 18.75s8.3945 18.75 18.75 18.75h150c10.355 0 18.75-8.3945 18.75-18.75s-8.3945-18.75-18.75-18.75z"/>
  <path fill="currentColor" d="m225 581.25h75c10.355 0 18.75-8.3945 18.75-18.75s-8.3945-18.75-18.75-18.75h-75c-10.355 0-18.75 8.3945-18.75 18.75s8.3945 18.75 18.75 18.75z"/>
  <path fill="currentColor" d="m225 487.5h93.75c10.355 0 18.75-8.3945 18.75-18.75s-8.3945-18.75-18.75-18.75h-93.75c-10.355 0-18.75 8.3945-18.75 18.75s8.3945 18.75 18.75 18.75z"/>
  <path fill="currentColor" d="m225 393.75h150c10.355 0 18.75-8.3945 18.75-18.75s-8.3945-18.75-18.75-18.75h-150c-10.355 0-18.75 8.3945-18.75 18.75s8.3945 18.75 18.75 18.75z"/>
  <path fill="currentColor" d="m225 675h93.75c10.355 0 18.75-8.3945 18.75-18.75s-8.3945-18.75-18.75-18.75h-93.75c-10.355 0-18.75 8.3945-18.75 18.75s8.3945 18.75 18.75 18.75z"/>
  <path fill="currentColor" d="m375 731.25h-150c-10.355 0-18.75 8.3945-18.75 18.75s8.3945 18.75 18.75 18.75h150c10.355 0 18.75-8.3945 18.75-18.75s-8.3945-18.75-18.75-18.75z"/>
 </g>
</svg>
