<svg width="30px" height="30px" viewBox="0 0 882 882" xmlns="http://www.w3.org/2000/svg">
<path fill="currentColor" fill-rule="evenodd" clip-rule="evenodd" d="M378.026 568.414L503.98 567.852V819.092C503.98 853.81 532.162 881.93 566.953 881.93H724.393C741.081 881.93 757.106 875.3 768.914 863.518C780.727 851.737 787.368 835.742 787.368 819.092V473.478H850.346C862.877 473.478 874.21 466.062 879.221 454.624C884.226 443.155 881.929 429.837 873.424 420.692C873.424 420.692 617.264 145.425 510.211 30.3982C492.356 11.2009 467.263 0.267578 440.997 0.267578C414.737 0.267578 389.643 11.1998 371.789 30.3982C264.732 145.425 8.57602 420.692 8.57602 420.692C0.0708148 429.837 -2.22614 443.156 2.77906 454.624C7.78426 466.061 19.1231 473.478 31.6537 473.478H94.6324V819.092C94.6324 835.742 101.273 851.737 113.08 863.518C124.893 875.299 140.919 881.93 157.607 881.93H315.047C331.735 881.93 347.76 875.3 359.568 863.518C371.376 851.737 378.022 835.742 378.022 819.092L378.026 568.414Z"/>
</svg>
