<svg viewBox="0 0 50 50" fill="none" xmlns="http://www.w3.org/2000/svg">
<path d="M38.2255 24.9442C38.2255 32.2484 32.3043 38.1696 25.0001 38.1696C17.6959 38.1696 11.7747 32.2484 11.7747 24.9442C11.7747 17.64 17.6959 11.7188 25.0001 11.7188C32.3043 11.7188 38.2255 17.64 38.2255 24.9442Z" fill="#FFC700"/>
<path d="M21.0938 10.1563C21.8193 8.98445 22.6004 7.53361 23.3259 5.74776C24.1629 3.57138 24.6652 1.5625 24.8885 0C25.1117 1.6741 25.614 3.73874 26.5068 6.02677C27.1764 7.64512 27.9577 9.04021 28.6832 10.1563C27.6229 9.98879 26.3396 9.82149 24.8885 9.82149C23.4374 9.82149 22.1541 9.98898 21.0938 10.1563Z" fill="#FFC700"/>
<path d="M11.7747 17.2434C11.4399 15.9041 10.9934 14.2857 10.2121 12.5559C9.26351 10.3796 8.20319 8.64969 7.25439 7.36621C8.59372 8.37077 10.3793 9.48684 12.6673 10.4912C14.2857 11.1607 15.848 11.6072 17.1316 11.8862C16.2388 12.5 15.2342 13.2813 14.2299 14.3416C13.1698 15.3462 12.3887 16.3507 11.7747 17.2435L11.7747 17.2434Z" fill="#FFC700"/>
<path d="M10.1563 28.9064C8.98445 28.1808 7.53361 27.3998 5.74776 26.6742C3.57138 25.7812 1.61825 25.3349 0 25.1116C1.6741 24.8884 3.73874 24.3861 6.02678 23.4933C7.64512 22.8237 9.04021 22.0424 10.1563 21.3169C9.98879 22.3772 9.82149 23.6605 9.82149 25.1116C9.82131 26.5067 9.9888 27.846 10.1563 28.9064Z" fill="#FFC700"/>
<path d="M17.2434 38.2256C15.9041 38.5604 14.2857 39.0069 12.5559 39.7882C10.3796 40.7368 8.64969 41.7971 7.36621 42.7459C8.37077 41.4065 9.48684 39.6209 10.4912 37.3329C11.1607 35.7146 11.6072 34.1522 11.8862 32.8687C12.5 33.7615 13.2813 34.766 14.3416 35.7703C15.3462 36.7747 16.3507 37.6118 17.2435 38.2256L17.2434 38.2256Z" fill="#FFC700"/>
<path d="M28.9064 39.8438C28.1808 41.0156 27.3998 42.4664 26.6742 44.2523C25.8372 46.4287 25.3349 48.4375 25.1116 50C24.8884 48.3259 24.3861 46.2613 23.4933 43.9733C22.8237 42.3549 22.0424 40.9598 21.3169 39.8438C22.3772 40.0112 23.6605 40.1785 25.1116 40.1785C26.5067 40.1785 27.846 40.011 28.9064 39.8438Z" fill="#FFC700"/>
<path d="M38.2254 32.7008C38.5601 34.0401 39.0066 35.6585 39.7879 37.3883C40.7365 39.5646 41.7968 41.2945 42.7456 42.578C41.4063 41.5734 39.6207 40.4574 37.3327 39.453C35.7143 38.7835 34.152 38.337 32.8684 38.058C33.7612 37.4442 34.7658 36.6629 35.7701 35.6026C36.7745 34.6538 37.6115 33.5935 38.2253 32.7007L38.2254 32.7008Z" fill="#FFC700"/>
<path d="M39.8438 21.0938C41.0156 21.8193 42.4664 22.6004 44.2523 23.3259C46.4287 24.1629 48.4375 24.6652 50 24.8885C48.3259 25.1117 46.2613 25.614 43.9733 26.5068C42.3549 27.1764 40.9598 27.9577 39.8438 28.6832C40.0112 27.6229 40.1785 26.3396 40.1785 24.8885C40.1785 23.4374 40.0112 22.1539 39.8438 21.0938Z" fill="#FFC700"/>
<path d="M32.7008 11.7747C34.0401 11.4399 35.6585 10.9934 37.3883 10.2121C39.5646 9.2635 41.2945 8.20319 42.578 7.25439C41.5734 8.59372 40.4574 10.3793 39.453 12.6673C38.7835 14.2857 38.337 15.848 38.058 17.1316C37.4442 16.2388 36.6629 15.2342 35.6026 14.2299C34.6538 13.1698 33.5937 12.3885 32.7007 11.7747L32.7008 11.7747Z" fill="#FFC700"/>
</svg>
